HIERARCHY
ROOT Hips
{
  OFFSET -35.4901 99.2528 17.4586
  CHANNELS 6 Xposition Yposition Zposition Zrotation Xrotation Yrotation
  JOINT LeftUpLeg
  {
    OFFSET 8.64259 1.95398 -2.38835
    CHANNELS 3 Zrotation Xrotation Yrotation
    JOINT LeftLeg
    {
      OFFSET 43.7702 0 0
      CHANNELS 3 Zrotation Xrotation Yrotation
      JOINT LeftFoot
      {
        OFFSET 40.6238 0 0
        CHANNELS 3 Zrotation Xrotation Yrotation
        JOINT LeftToeBase
        {
          OFFSET 12.7242 0 0
          CHANNELS 3 Zrotation Xrotation Yrotation
          End Site
          {
            OFFSET 0 0 0
          }
        }
      }
    }
  }
  JOINT RightUpLeg
  {
    OFFSET -8.2249 1.95398 -2.59336
    CHANNELS 3 Zrotation Xrotation Yrotation
    JOINT RightLeg
    {
      OFFSET 43.5653 0 0
      CHANNELS 3 Zrotation Xrotation Yrotation
      JOINT RightFoot
      {
        OFFSET 40.6238 0 0
        CHANNELS 3 Zrotation Xrotation Yrotation
        JOINT RightToeBase
        {
          OFFSET 12.7242 0 0
          CHANNELS 3 Zrotation Xrotation Yrotation
          End Site
          {
            OFFSET 0 0 0
          }
        }
      }
    }
  }
  JOINT Spine
  {
    OFFSET 0.165834 0.87714 6.61349
    CHANNELS 3 Zrotation Xrotation Yrotation
    JOINT Spine1
    {
      OFFSET 7.38963 1.71661e-005 0
      CHANNELS 3 Zrotation Xrotation Yrotation
      JOINT Spine2
      {
        OFFSET 11.9445 1.14441e-005 0
        CHANNELS 3 Zrotation Xrotation Yrotation
        JOINT Spine3
        {
          OFFSET 14.7254 4.19617e-005 0
          CHANNELS 3 Zrotation Xrotation Yrotation
          JOINT Spine4
          {
            OFFSET 10.9679 0 0
            CHANNELS 3 Zrotation Xrotation Yrotation
            JOINT RightShoulder
            {
              OFFSET 2.46616 -1.6653 3.69651
              CHANNELS 3 Zrotation Xrotation Yrotation
              JOINT RightArm
              {
                OFFSET 13.0012 0 0
                CHANNELS 3 Zrotation Xrotation Yrotation
                JOINT RightForeArm
                {
                  OFFSET 28.7848 1.52588e-005 0
                  CHANNELS 3 Zrotation Xrotation Yrotation
                  JOINT RightHand
                  {
                    OFFSET 26.5688 1.52588e-005 0
                    CHANNELS 3 Zrotation Xrotation Yrotation
                    End Site
                    {
                      OFFSET 0 0 0
                    }
                  }
                }
              }
            }
            JOINT LeftShoulder
            {
              OFFSET 2.38034 -1.29275 -3.7523
              CHANNELS 3 Zrotation Xrotation Yrotation
              JOINT LeftArm
              {
                OFFSET 16.3182 6.10351e-005 0
                CHANNELS 3 Zrotation Xrotation Yrotation
                JOINT LeftForeArm
                {
                  OFFSET 27.0901 0 0
                  CHANNELS 3 Zrotation Xrotation Yrotation
                  JOINT LeftHand
                  {
                    OFFSET 24.5451 1.52588e-005 0
                    CHANNELS 3 Zrotation Xrotation Yrotation
                    End Site
                    {
                      OFFSET 0 0 0
                    }
                  }
                }
              }
            }
            JOINT Neck
            {
              OFFSET 5.0226 -0.0266342 0
              CHANNELS 3 Zrotation Xrotation Yrotation
              JOINT Head
              {
                OFFSET 6.69364 2.86102e-005 0
                CHANNELS 3 Zrotation Xrotation Yrotation
                End Site
                {
                  OFFSET 0 0 0
                }
              }
            }
          }
        }
      }
    }
  }
}
MOTION
Frames:	7
Frame Time:	0.0416667
36.1678 100.28 -338.837 151.019 -67.6679 145.463 -167.065 -21.6579 99.4669 -3.94743 27.9646 -5.24439 71.7179 5.96484 0.833479 16.7101 -3.04244 5.05963 164.679 -27.5178 82.0763 -2.95298 -2.37751 -0.769633 73.5948 -4.41415 0.856031 21.9232 -1.31462 3.85946 -2.44025 7.36385 -87.1469 12.2096 -3.50002 6.0839 0.528422 -3.2294 6.23136 -21.968 -5.16476 4.75442 -1.95536 -5.16475 4.75442 66.0449 -46.9564 -137.583 45.6615 -6.18994 12.142 -7.56871 -28.5999 -16.2061 -18.36 0.51512 -14.2625 -80.3131 -9.68069 89.773 -59.4166 -4.11353 20.4685 18.9292 26.0424 -26.1545 -1.9705 -0.107781 -9.28448 -15.4734 7.11729 -32.18 -4.89139 6.86871 18.1123 
35.4665 100.377 -339.111 152.274 -69.8038 146.373 -169.207 -21.5402 97.1467 -2.38348 24.0792 -3.7613 70.8984 5.46556 0.169631 18.0132 -3.24257 5.34384 164.392 -24.8704 81.6801 -3.94184 -4.6628 -0.480558 73.5656 -4.70067 0.43333 21.9427 -1.21302 3.62785 -2.35406 7.30582 -87.369 12.3228 -3.43046 5.64008 0.643516 -3.17933 5.78504 -21.8636 -4.96545 4.35113 -1.85098 -4.96544 4.35113 68.6675 -45.2387 -134.889 45.5881 -7.37942 10.5993 -3.43389 -27.3934 -16.2921 -21.2077 0.355596 -11.4422 -79.9173 -12.2035 91.2032 -58.5839 -2.36031 18.738 18.3265 24.9988 -26.0949 -4.30641 -0.0133421 -8.90575 -14.1761 6.8707 -29.6238 -4.47452 7.02835 16.8461 
34.5441 100.531 -339.734 154.534 -73.2426 148.479 -171.648 -18.3983 94.6904 -4.27759 19.604 -2.45246 71.2496 5.62279 0.0276279 19.6949 -3.69567 6.01919 164.608 -20.9382 81.8807 -4.85697 -7.8555 -0.2686 73.1431 -5.09123 -0.615107 21.7896 -1.29085 3.81088 -2.27451 7.20078 -87.7296 12.5296 -3.43787 4.93364 0.853271 -3.2177 5.07978 -21.6719 -4.76072 3.67386 -1.65923 -4.76072 3.67386 71.7946 -41.8308 -132.291 45.4418 -9.34528 7.8101 2.47113 -30.5984 -15.4197 -26.1507 0.119552 -9.30012 -78.9145 -16.7971 94.2108 -55.8689 -0.618803 16.37 17.1855 23.5103 -25.4609 -3.46654 -0.0435088 -9.44357 -11.9023 6.92923 -24.4517 -4.6674 7.52405 14.259 
33.5384 100.582 -340.455 162.291 -76.1485 156.157 -173.867 -16.0708 92.6232 -6.10461 14.1724 -0.938552 71.6172 5.81669 -0.705817 20.2479 -5.79805 9.05521 164.43 -17.3511 81.7223 -6.50173 -11.5721 0.210882 73.5581 -5.76385 -1.07914 20.8499 -1.48487 4.27948 -2.02606 7.25332 -88.1764 12.4129 -3.15931 4.00313 0.739164 -2.98022 4.13808 -21.798 -4.21583 2.86909 -1.78538 -4.21582 2.8691 75.5632 -37.3237 -129.052 46.3498 -9.00599 6.36526 1.43929 -31.7343 -17.4024 -25.9657 -0.191644 -7.87431 -77.6273 -22.8704 97.3704 -52.0161 1.54169 13.2723 15.6376 20.7073 -24.9462 -4.7487 0.0381942 -10.4197 -8.13447 6.08976 -18.8649 -6.64867 6.88731 12.8222 
32.3899 100.222 -341.277 170.118 -77.1554 164.096 -175.034 -14.3144 91.7362 -8.52744 10.1535 0.509923 71.6662 6.80904 -1.08701 22.7091 -6.55773 10.4184 164.112 -13.7357 81.572 -11.3066 -14.1424 1.08241 76.0562 -6.91551 -0.946095 20.1804 -2.18639 5.82898 -1.84831 7.5547 -88.6544 11.8004 -3.04341 3.00545 0.129268 -2.90824 3.13641 -22.4207 -3.80571 1.95159 -2.40804 -3.80571 1.95159 79.1039 -32.4919 -125.958 46.5034 -10.7079 3.03738 1.97121 -29.5511 -16.4334 -26.5417 -0.119713 -7.86354 -75.8252 -30.0615 100.923 -46.7526 3.63196 9.69345 15.0404 19.2719 -25.4017 -5.16714 0.0731728 -11.0731 -4.11425 6.01653 -11.9211 -6.85193 6.80961 10.0663 
31.3786 99.6386 -342.415 171.622 -77.4503 167.039 -176.758 -3.55077 90.8767 -27.8601 4.22433 2.595 74.5156 7.42157 -7.23409 23.6477 -6.89519 10.6832 164.546 -11.4965 83.1589 -14.7109 -13.9775 2.24962 77.9567 -7.56994 -0.199951 19.0912 -2.81265 7.15298 -1.65341 7.92512 -89.363 11.0441 -2.99599 1.55607 -0.62451 -2.92461 1.68647 -23.1857 -3.325 0.582903 -3.17304 -3.32499 0.582903 82.8126 -26.4786 -122.76 46.383 -12.9982 -0.820306 4.7869 -28.8724 -14.7853 -27.1214 0.233247 -9.38498 -73.8784 -39.3678 103.876 -39.5524 5.99064 6.14751 13.5078 15.6365 -26.3648 -2.14184 -0.0986999 -9.66574 -0.365783 6.00209 -3.22683 -7.62423 6.09503 6.26661 
30.8066 100.039 -343.112 174.061 -78.2344 169.168 177.898 6.83421 91.5911 -40.1886 -11.2149 6.59151 72.982 2.78734 -43.205 15.348 -17.1251 23.8382 165.019 -11.205 83.6756 -13.0475 -12.9417 1.86313 77.1817 -7.35253 1.26295 19.8384 -3.35889 8.34801 -1.29107 8.18973 -89.8339 10.5012 -2.49532 0.55313 -1.1675 -2.46856 0.662483 -23.7219 -2.54613 -0.222882 -3.70923 -2.54613 -0.222893 85.3904 -21.5496 -120.634 46.9564 -11.4676 -2.55329 2.77906 -27.5513 -16.4137 -24.9057 0.131361 -9.05382 -72.0792 -47.5962 106.044 -33.7374 8.11171 2.81828 11.773 12.8595 -26.34 -1.02812 -0.130566 -7.59819 1.28891 5.78407 3.47268 -7.78774 5.07453 2.70953 
